<?xml version="1.0" standalone="no"?>
<!DOCTYPE svg PUBLIC "-//W3C//DTD SVG 20010904//EN"
 "http://www.w3.org/TR/2001/REC-SVG-20010904/DTD/svg10.dtd">
<svg version="1.0" xmlns="http://www.w3.org/2000/svg"
 width="500.000000pt" height="500.000000pt" viewBox="0 0 500.000000 500.000000"
 preserveAspectRatio="xMidYMid meet">

<g transform="translate(0.000000,500.000000) scale(0.100000,-0.100000)"
fill="#34495e" stroke="none">
<path d="M2366 3429 c-122 -14 -240 -90 -301 -193 -42 -72 -55 -146 -55 -313
l0 -153 -350 0 -350 0 0 165 0 165 219 0 c121 0 226 3 235 6 14 5 16 28 16
148 0 97 -4 146 -12 154 -9 9 -110 12 -394 12 -334 0 -385 -2 -398 -16 -14
-13 -16 -57 -16 -325 l0 -309 145 0 c90 0 145 -4 145 -10 0 -7 423 -10 1250
-10 827 0 1250 3 1250 10 0 6 -27 10 -60 10 l-60 0 0 309 c0 268 -2 312 -16
325 -13 13 -42 16 -157 16 -78 0 -149 -5 -157 -10 -13 -8 -15 -57 -18 -325
l-3 -315 -209 0 c-128 0 -211 4 -215 10 -4 6 -62 10 -140 10 -78 0 -136 -4
-140 -10 -4 -6 -58 -10 -131 -10 l-124 0 0 108 c1 136 11 180 50 215 23 21 40
27 74 27 74 0 116 -53 116 -147 0 -56 16 -63 159 -63 85 0 131 4 139 12 17 17
15 142 -3 211 -32 123 -105 216 -202 259 -40 18 -181 49 -208 46 -5 0 -41 -4
-79 -9z"/>
<path d="M2020 2530 c0 -27 5 -43 15 -46 9 -4 15 -19 15 -40 0 -24 5 -34 15
-34 10 0 15 10 15 34 0 18 7 39 15 46 20 16 20 80 1 80 -9 0 -16 -12 -18 -32
-2 -18 -7 -33 -13 -33 -5 0 -11 15 -13 33 -5 49 -32 42 -32 -8z"/>
<path d="M2250 2551 c-13 -25 -13 -97 0 -122 12 -21 50 -25 68 -7 7 7 12 37
12 68 0 31 -5 61 -12 68 -18 18 -56 14 -68 -7z m50 -62 c0 -36 -4 -49 -12 -47
-15 5 -22 50 -13 85 9 39 25 16 25 -38z"/>
<path d="M2470 2501 c0 -77 13 -97 55 -87 24 6 25 10 25 81 0 60 -3 75 -15 75
-12 0 -15 -14 -15 -65 0 -37 -4 -65 -10 -65 -6 0 -10 28 -10 65 0 51 -3 65
-15 65 -12 0 -15 -14 -15 -69z"/>
<path d="M2690 2490 c0 -64 3 -80 15 -80 10 0 15 10 15 31 0 38 24 35 28 -4 2
-15 9 -27 17 -27 16 0 19 128 3 148 -6 6 -26 12 -44 12 l-34 0 0 -80z m60 30
c0 -11 -7 -20 -15 -20 -8 0 -15 9 -15 20 0 11 7 20 15 20 8 0 15 -9 15 -20z"/>
<path d="M2927 2563 c-16 -15 -5 -59 20 -85 27 -28 26 -51 -1 -28 -22 18 -35
9 -25 -17 15 -40 79 -25 79 19 0 9 -14 31 -30 48 -17 17 -27 36 -24 42 5 7 11
6 19 -5 15 -20 35 -22 35 -4 0 29 -53 51 -73 30z"/>
<path d="M1250 2240 c0 -6 -55 -10 -145 -10 l-145 0 0 -292 c0 -167 4 -299 10
-308 13 -20 302 -22 322 -2 10 10 14 82 16 307 l3 295 339 0 340 0 0 -142 c0
-89 5 -162 14 -194 55 -206 217 -311 465 -302 93 3 114 7 171 34 165 78 230
210 230 472 l0 132 205 0 205 0 0 -288 c0 -233 3 -292 14 -308 14 -18 32 -19
395 -22 461 -3 421 -18 421 152 0 63 -4 126 -10 140 l-10 26 -230 0 -230 0 0
150 0 150 60 0 c33 0 60 4 60 10 0 7 -423 10 -1250 10 -827 0 -1250 -3 -1250
-10z m1308 -151 l-3 -141 -33 -29 c-38 -35 -78 -37 -139 -10 -61 28 -74 61
-80 202 l-6 119 132 0 133 0 -4 -141z"/>
</g>
</svg>
