
    <svg
      xmlns="http://www.w3.org/2000/svg"
      width="666.667"
      height="666.667"
      version="1.1"
      viewBox="0 0 666.667 666.667"
      xmlSpace="preserve"
    >
      <defs>
        <clipPath clipPathUnits="userSpaceOnUse">
          <path d="M0 500h500V0H0z"></path>
        </clipPath>
      </defs>
      <g transform="matrix(1.33333 0 0 -1.33333 0 666.667)">
        <g>
          <g fillOpacity="1" fillRule="nonzero" stroke="none">
            <path
              fill="#da251d"
              d="M486.847 334.462l-85.851-46.776 71.515 40.951a3.002 3.002 0 011.128 4.066 2.998 2.998 0 01-4.052 1.17l-131.841-71.831c63.964 37.146 132.225 76.784 132.225 76.784a2.998 2.998 0 011.107 4.065 3.002 3.002 0 01-4.049 1.163l-59.847-32.609 61.662 35.152a2.996 2.996 0 011.134 4.065 2.996 2.996 0 01-4.054 1.172L363.37 295.96l118.68 68.253a3 3 0 01-2.93 5.234L415.53 334.8c10.826 6.154 45.943 26.111 45.943 26.111a3 3 0 01-2.917 5.241l-72.219-39.349 82.102 46.814a2.999 2.999 0 01-2.919 5.238l-155.056-84.48L465.472 384a3.003 3.003 0 011.113 4.065 2.999 2.999 0 01-4.051 1.164l-35.902-19.561 21.547 12.183a3 3 0 011.145 4.066 3 3 0 01-4.058 1.177s-72.811-39.669-139.968-76.26a9380377.42 9380377.42 0 00152.171 87.918 2.998 2.998 0 011.113 4.065 2.996 2.996 0 01-4.049 1.166L300.468 320.04l132.595 76.574a2.996 2.996 0 011.117 4.063 2.998 2.998 0 01-4.049 1.167l-139.203-75.843 140.576 81.089a2.998 2.998 0 011.118 4.065 3.001 3.001 0 01-4.052 1.167s-69.606-37.926-126.788-69.08l110.906 63.59a2.995 2.995 0 011.126 4.064 2.998 2.998 0 01-4.052 1.17l-132.803-72.358 125.978 72.512a2.997 2.997 0 011.121 4.064 3 3 0 01-4.051 1.169l-5.213-2.84c.174.097 5.446 3.078 5.446 3.078a3 3 0 011.146 4.068 2.999 2.999 0 01-4.056 1.176L190.841 310.43l70.279 41.683a3 3 0 01-2.965 5.212l-48.95-26.671 39.653 23.305a2.997 2.997 0 011.091 4.063 3 3 0 01-4.045 1.156l-69.369-37.797 62.15 37.019a2.997 2.997 0 011.071 4.061 2.998 2.998 0 01-4.04 1.149l-85.131-46.383 83.03 50.294a3.001 3.001 0 011.046 4.061 3.001 3.001 0 01-4.035 1.139l-72.549-39.529c36.651 21.926 77.885 46.597 77.885 46.597a2.996 2.996 0 011.065 4.06 3 3 0 01-4.039 1.146l-87.619-47.739 76.13 46.365a2.994 2.994 0 011.038 4.058c-.626 1.087-1.831 1.613-3.005 1.451a3 3 0 01.51 1.641 2.999 2.999 0 01-4.435 2.63l-6.72-3.661 11.805 6.887a2.998 2.998 0 01-2.945 5.224l-92.795-50.56 76.031 46.455a2.993 2.993 0 011.435 2.561 3 3 0 01-4.434 2.63l-48.642-26.503 56.046 33.439a2.998 2.998 0 01-2.971 5.208l-11.68-6.363 4.641 2.72a2.998 2.998 0 01-2.952 5.22l-74.96-40.842 71.378 43.727a2.999 2.999 0 01-3.001 5.191l-54.57-29.731 40.052 24.287a2.998 2.998 0 01-2.99 5.197l-32.76-17.85 25.041 15.289a3 3 0 01-2.999 5.193l-49.423-26.93 36.582 23.408a2.995 2.995 0 01.966 4.052 2.998 2.998 0 01-4.016 1.107l-52.782-28.757 34.709 23.493a2.997 2.997 0 01.881 4.044 3 3 0 01-3.997 1.072l-29.952-16.319 14.883 11.202a2.994 2.994 0 01.718 4.019 3 3 0 01-3.957 1.01l-33.99-18.521a2.997 2.997 0 01-1.198-4.068c.627-1.151 1.9-1.709 3.126-1.504l-15.883-11.954a2.997 2.997 0 01-.717-4.019 2.998 2.998 0 013.956-1.01l11.138 6.069-34.694-23.483a3 3 0 013.116-5.118s18.849 10.271 32.672 17.801L33.14 359.286a3.002 3.002 0 01-.965-4.054 2.997 2.997 0 014.015-1.106l17.406 9.483-25.027-15.28a3 3 0 012.998-5.193l25.656 13.978-39.988-24.246a2.997 2.997 0 01-1.044-4.059 3 3 0 014.035-1.139l64.795 35.304-71.407-43.746a3 3 0 013.001-5.191l10.494 5.718-4.732-2.776a2.995 2.995 0 01-1.095-4.062 3 3 0 014.046-1.158l45.041 24.542-55.996-33.408a2.998 2.998 0 01-1.068-4.061 3.001 3.001 0 014.04-1.149l77.286 42.111-76.023-46.448a3 3 0 012.998-5.193s15.506 8.449 18.686 10.18c-1.387-.807-11.826-6.898-11.826-6.898a2.998 2.998 0 01-1.1-4.063c.454-.806 1.23-1.301 2.076-1.455l-3.571-2.063a2.996 2.996 0 01-1.117-4.064 2.999 2.999 0 014.051-1.166l83.162 45.312-76.113-46.353a3 3 0 012.996-5.195l66.257 36.1-77.899-46.605a3 3 0 012.975-5.208l88.189 48.052c-40.57-24.576-82.992-50.271-82.992-50.271a3 3 0 01-1.046-4.06 2.998 2.998 0 014.035-1.139l62.807 34.22-62.189-37.042a2.996 2.996 0 01-1.071-4.061 2.998 2.998 0 014.04-1.148l44.504 24.248-39.697-23.332a2.993 2.993 0 01-1.091-4.061 2.998 2.998 0 014.045-1.156s37.93 20.665 66.839 36.418l-70.252-41.667a3.003 3.003 0 01-1.47-2.582 2.998 2.998 0 014.435-2.632l16.547 9.016-5.148-2.912a2.998 2.998 0 012.911-5.242l114.229 62.236c-58.235-33.518-126.066-72.563-126.066-72.563a2.995 2.995 0 01-1.12-4.063 2.996 2.996 0 014.051-1.167l115.604 62.986-110.902-63.588a3 3 0 01-1.508-2.603 3.002 3.002 0 014.434-2.633l152.735 83.219-140.551-81.077a2.996 2.996 0 01-1.118-4.065 3 3 0 014.051-1.167l143.485 78.179-132.635-76.597a2.993 2.993 0 01-1.115-4.064 3.001 3.001 0 014.05-1.168s79.624 43.386 155.779 84.879C172.724 241.165 94.86 196.175 94.86 196.175a2.995 2.995 0 01-1.115-4.062 2.999 2.999 0 014.049-1.166l15.587 8.491c-2.477-1.399-21.591-12.207-21.591-12.207a2.998 2.998 0 01-1.147-4.067 3.002 3.002 0 014.058-1.178l163.042 88.834-154.95-89.594a2.996 2.996 0 01-1.114-4.062 3 3 0 014.05-1.167l90.225 49.159-82.2-46.87a2.997 2.997 0 01-1.133-4.064 2.997 2.997 0 014.053-1.173s38.194 20.808 51.094 27.838l-45.964-26.124a2.997 2.997 0 01-1.138-4.064 2.996 2.996 0 014.054-1.177l128.688 70.117-118.575-68.196a2.994 2.994 0 01-1.122-4.064 3 3 0 014.051-1.169l57.373 31.26c-18.69-10.656-61.776-35.216-61.776-35.216a3.001 3.001 0 01-1.134-4.067 2.996 2.996 0 014.054-1.171l140.27 76.423c-63.939-37.128-132.183-76.76-132.183-76.76a2.993 2.993 0 01-1.108-4.061 3.001 3.001 0 014.049-1.166l76.598 41.735c-25.065-14.352-71.672-41.043-71.672-41.043a2.994 2.994 0 01-1.508-2.604c0-.495.123-.996.38-1.461a3.005 3.005 0 014.054-1.172l132.629 72.266L170.27 151.11a2.997 2.997 0 01-1.112-4.065 3.001 3.001 0 014.05-1.165l28.939 15.769c-4.407-2.508-27.05-15.411-27.05-15.411a2.994 2.994 0 01-1.135-4.063 2.999 2.999 0 014.054-1.174l109.873 59.864-110.962-64.347a2.994 2.994 0 01-1.11-4.063 3 3 0 014.049-1.164l32.137 17.509-29.541-16.853a2.995 2.995 0 01-1.134-4.066 3 3 0 014.055-1.172l64.191 34.975c-16.047-9.208-53.381-30.626-53.381-30.626a3.005 3.005 0 01-1.507-2.605 3 3 0 014.435-2.632s33.127 18.05 45.355 24.711c-11.037-6.333-42.465-24.374-42.465-24.374a2.998 2.998 0 012.929-5.233s55.906 30.459 107.082 58.345l-89.814-52.745a2.99 2.99 0 01-1.481-2.588 3 3 0 014.434-2.631s33.896 18.468 50.309 27.413c-15.709-9.12-48.665-28.249-48.665-28.249a2.996 2.996 0 01-1.108-4.065 2.998 2.998 0 014.048-1.163l102.129 55.644-86.561-51.533a3.008 3.008 0 01-1.465-2.582 3.002 3.002 0 014.435-2.631s43.545 23.725 83.132 45.297l-58.31-34.918a2.998 2.998 0 01-1.063-4.061 3.003 3.003 0 014.04-1.145l83.941 45.739a639131.04 639131.04 0 00-39.138-24.602 3.001 3.001 0 01-1.404-2.542 3.001 3.001 0 014.435-2.633l99.761 54.354a2.999 2.999 0 11-2.869 5.267s-11.321-6.168-15.287-8.331l39.188 24.636a2.996 2.996 0 01.991 4.053 2.998 2.998 0 01-4.023 1.118l-38.932-21.213c25.177 15.078 58.304 34.912 58.304 34.912a3.005 3.005 0 011.062 4.063 3.001 3.001 0 01-4.04 1.144l-74.538-40.614c41.175 24.516 86.518 51.511 86.518 51.511a2.999 2.999 0 01-2.969 5.211l-45.465-24.772 48.703 28.27a2.998 2.998 0 01-2.939 5.228s-45.164-24.609-81.025-44.146L476.16 268.7a3.004 3.004 0 011.482 2.59 3 3 0 01-4.436 2.63l-34.023-18.537 42.426 24.352a3.003 3.003 0 011.125 4.065 3 3 0 01-4.052 1.171l-43.21-23.544 53.411 30.645a2.998 2.998 0 011.124 4.065 2.999 2.999 0 01-4.052 1.17s-27.616-15.047-34.609-18.859l29.551 16.861a2.997 2.997 0 011.133 4.065 2.999 2.999 0 01-4.054 1.173l-103.12-56.185L485.8 308.698a2.997 2.997 0 011.111 4.063 3.002 3.002 0 01-4.05 1.165l-29.635-16.147 27.118 15.448a3 3 0 01-2.92 5.239L372.268 261.17l117.517 68.063a3.001 3.001 0 011.112 4.065 3 3 0 01-4.05 1.164"
            ></path>
            <path
              fill="#ff0"
              d="M254.043 339.141l18.856-58.035h61.021l-49.366-35.867 18.855-58.034-49.366 35.867-49.367-35.867 18.857 58.034-49.367 35.867h61.021z"
            ></path>
          </g>
        </g>
      </g>
    </svg>
  


